<?xml version="1.0" standalone="no"?><!DOCTYPE svg PUBLIC "-//W3C//DTD SVG 1.1//EN" "http://www.w3.org/Graphics/SVG/1.1/DTD/svg11.dtd"><svg t="1588939513420" class="icon" viewBox="0 0 1024 1024" version="1.1" xmlns="http://www.w3.org/2000/svg" p-id="4971" xmlns:xlink="http://www.w3.org/1999/xlink" width="200" height="200"><defs><style type="text/css"></style></defs><path d="M828 1014.67h-10.7L512.47 782.31l-305.8 232.36H196A91.77 91.77 0 0 1 104.33 923V101A91.79 91.79 0 0 1 196 9.33h632A91.79 91.79 0 0 1 919.67 101v822a91.77 91.77 0 0 1-91.67 91.67z m-632-942A28.38 28.38 0 0 0 167.67 101v822a28.39 28.39 0 0 0 19.51 26.92l304.44-231.33 20.87-20.88 20.91 20.89 303.44 231.31A28.38 28.38 0 0 0 856.33 923V101A28.38 28.38 0 0 0 828 72.67z" p-id="4972"></path><path d="M512.5 544.17c-90.25 0-163.67-73.42-163.67-163.67s73.42-163.67 163.67-163.67 163.67 73.42 163.67 163.67-73.42 163.67-163.67 163.67z m0-264A100.33 100.33 0 1 0 612.83 380.5 100.45 100.45 0 0 0 512.5 280.17z" p-id="4973"></path></svg>