<?xml version="1.0" standalone="no"?><!DOCTYPE svg PUBLIC "-//W3C//DTD SVG 1.1//EN" "http://www.w3.org/Graphics/SVG/1.1/DTD/svg11.dtd"><svg t="1589030859840" class="icon" viewBox="0 0 1024 1024" version="1.1" xmlns="http://www.w3.org/2000/svg" p-id="21371" xmlns:xlink="http://www.w3.org/1999/xlink" width="200" height="200"><defs><style type="text/css"></style></defs><path d="M618.961592 276.109502l-71.16583 131.132596c-18.995633 35.534308-30.579459 59.171658-34.825157 70.869071l-1.231037 0c-12.511965-28.467355-47.825238-95.779414-105.97973-202.000644L338.820264 276.110525l124.472919 213.814714-102.054327 0 0 47.269583 119.631658 0 0 65.106834L361.237833 602.301655l0 47.821145 119.631658 0 0 94.817506 59.361993 0 0-94.817506 115.40131 0 0-47.821145L540.231483 602.301655l0-65.106834 115.397217 0 0-47.269583-99.036597 0 125.688607-213.814714L618.961592 276.110525 618.961592 276.109502 618.961592 276.109502zM618.961592 276.109502" p-id="21372"></path><path d="M194.361151 193.036481c68.009953-68.004837 155.701155-112.113427 252.588809-126.030391 118.430296-17.004279 236.45127 13.169951 332.225567 84.910878 95.80295 71.761394 157.929916 176.528506 174.943404 294.985408 35.123962 244.611114-135.336338 472.103338-379.821585 507.250836-102.521978 14.71105-207.645201-6.770194-296.017924-60.425208-15.121396-9.193383-19.917632-28.880771-10.751878-43.977607 9.251711-15.003715 28.853142-19.935028 43.972491-10.750855 75.702146 46.01194 165.797094 64.409962 253.700119 51.782364 209.521944-30.051433 355.627557-225.091548 325.552587-434.783361-14.579043-101.525278-67.828828-191.308117-149.95529-252.801656-82.105996-61.512982-183.250604-87.336114-284.752346-72.740698-209.746048 30.065759-355.784122 225.12634-325.660034 434.769035 7.891737 54.884005 26.948769 106.168018 56.70856 152.398946 9.550517 14.902408 5.208629 34.768875-9.570983 44.25083-14.866592 9.56996-34.695197 5.266957-44.240597-9.575076-34.743292-54.069453-57.014528-113.904213-66.268286-177.977507-16.998139-118.435413 13.149485-236.486062 84.959997-332.283896C165.032172 224.546126 179.202916 208.201879 194.361151 193.036481L194.361151 193.036481 194.361151 193.036481 194.361151 193.036481zM194.361151 193.036481" p-id="21373"></path></svg>