<?xml version="1.0" standalone="no"?><!DOCTYPE svg PUBLIC "-//W3C//DTD SVG 1.1//EN" "http://www.w3.org/Graphics/SVG/1.1/DTD/svg11.dtd"><svg t="1588939582759" class="icon" viewBox="0 0 1024 1024" version="1.1" xmlns="http://www.w3.org/2000/svg" p-id="7593" xmlns:xlink="http://www.w3.org/1999/xlink" width="200" height="200"><defs><style type="text/css"></style></defs><path d="M243.903497 511.932462c0 15.22475 1.288343 30.145577 3.725858 44.676525l-3.725858 0L243.903497 511.932462zM467.279984 243.88252l0 3.730974c14.531971-2.440585 29.452799-3.730974 44.675502-3.730974L467.279984 243.88252zM556.716946 243.88252l-44.76146 0c15.253402 0 30.203906 1.293459 44.76146 3.741207L556.716946 243.88252zM243.903497 467.300962l0 44.6315c0-15.207353 1.287319-30.113855 3.723811-44.6315L243.903497 467.300962zM958.70846 243.88252l0 536.102954c0 98.774631-79.971379 178.744987-178.615027 178.744987L243.903497 958.730461c-98.642624 0-178.61298-79.969333-178.61298-178.744987L65.290517 243.88252c0-98.600669 79.969333-178.615027 178.61298-178.615027l536.190959 0C878.73708 65.267493 958.70846 145.280828 958.70846 243.88252zM869.401458 288.555975c0-73.992201-59.989279-133.981481-134.069485-133.981481L288.667004 154.574494c-74.082252 0-134.115534 59.989279-134.115534 133.981481l0 446.797999c0 73.994248 60.033281 134.069485 134.115534 134.069485l446.664969 0c74.080206 0 134.069485-60.075237 134.069485-134.069485L869.401458 288.555975zM467.279984 247.613494c-112.218828 18.847254-200.823841 107.464547-219.652675 219.687468l219.652675 0L467.279984 247.613494zM556.716946 247.623727l0 308.98526-89.436962 0L247.628332 556.608987c21.272489 126.824477 131.551128 223.376487 264.327154 223.376487 148.07343 0 268.137946-119.934556 268.137946-268.053012C780.093433 379.191228 683.485141 268.935102 556.716946 247.623727z" p-id="7594"></path></svg>