<?xml version="1.0" standalone="no"?><!DOCTYPE svg PUBLIC "-//W3C//DTD SVG 1.1//EN" "http://www.w3.org/Graphics/SVG/1.1/DTD/svg11.dtd"><svg t="1589612400344" class="icon" viewBox="0 0 1024 1024" version="1.1" xmlns="http://www.w3.org/2000/svg" p-id="2226" xmlns:xlink="http://www.w3.org/1999/xlink" width="200" height="200"><defs><style type="text/css"></style></defs><path d="M1018.905473 356.616915c0 30.567164-20.378109 50.945274-50.945274 50.945274s-50.945274-20.378109-50.945274-50.945274V152.835821c0-30.567164-20.378109-50.945274-50.945273-50.945274H152.835821c-30.567164 0-50.945274 20.378109-50.945274 50.945274v713.233831c0 30.567164 20.378109 50.945274 50.945274 50.945273h101.890547c30.567164 0 50.945274 20.378109 50.945274 50.945274s-20.378109 50.945274-50.945274 50.945274H101.890547c-56.039801 0-101.890547-45.850746-101.890547-101.890548V101.890547C0 45.850746 45.850746 0 101.890547 0h815.124378c56.039801 0 101.890547 45.850746 101.890548 101.890547v254.726368z" p-id="2227"></path><path d="M993.432836 570.587065c-20.378109-20.378109-50.945274-20.378109-71.323383 0l-326.049752 326.049751-142.646766-142.646766c-20.378109-20.378109-50.945274-20.378109-71.323383 0s-20.378109 50.945274 0 71.323383l178.308458 178.308458s0 5.094527 5.094527 5.094527c20.378109 20.378109 50.945274 20.378109 71.323383 0l361.711443-361.711443c15.283582-25.472637 15.283582-56.039801-5.094527-76.41791z" p-id="2228"></path></svg>